<svg width="22" height="30" viewBox="0 0 22 30" fill="none" xmlns="http://www.w3.org/2000/svg">
<path fill-rule="evenodd" clip-rule="evenodd" d="M3 0C1.34315 0 0 1.34315 0 3V27C0 28.6569 1.34315 30 3 30H19C20.6569 30 22 28.6569 22 27V10H15C13.8954 10 13 9.10457 13 8V0H3ZM15 8H22L15 1V8ZM11 14.5C11.8284 14.5 12.5 15.1716 12.5 16V19H15.5C16.3284 19 17 19.6716 17 20.5C17 21.3284 16.3284 22 15.5 22H12.5V25C12.5 25.8284 11.8284 26.5 11 26.5C10.1716 26.5 9.5 25.8284 9.5 25V22H6.5C5.67157 22 5 21.3284 5 20.5C5 19.6716 5.67157 19 6.5 19H9.5V16C9.5 15.1716 10.1716 14.5 11 14.5Z" fill="white"/>
</svg>
