<svg width="22" height="26" viewBox="0 0 22 26" fill="none" xmlns="http://www.w3.org/2000/svg">
<g clip-path="url(#clip0_204_668)">
<path d="M22 16.5V2.35714C22 1.05531 20.9442 0 19.6429 0H4.71429C2.11063 0 0 2.11063 0 4.71429V20.4286C0 23.0322 2.11063 25.1429 4.71429 25.1429H20.4286C21.2963 25.1429 22 24.4392 22 23.6156C22 23.0401 21.6755 22.5588 21.2143 22.2848V18.2895C21.6955 17.8161 22 17.1973 22 16.5ZM7.02723 6.28571H16.4558C16.9321 6.28571 17.2857 6.63929 17.2857 7.07143C17.2857 7.50357 16.9321 7.85714 16.5 7.85714H7.02723C6.63929 7.85714 6.28571 7.50357 6.28571 7.07143C6.28571 6.63929 6.63929 6.28571 7.02723 6.28571ZM7.02723 9.42857H16.4558C16.9321 9.42857 17.2857 9.78214 17.2857 10.2143C17.2857 10.6464 16.9321 11 16.5 11H7.02723C6.63929 11 6.28571 10.6464 6.28571 10.2143C6.28571 9.78214 6.63929 9.42857 7.02723 9.42857ZM18.8571 22H4.71429C3.84656 22 3.14286 21.2963 3.14286 20.4286C3.14286 19.5608 3.84656 18.8571 4.71429 18.8571H18.8571V22Z" fill="white"/>
</g>
<defs>
<clipPath id="clip0_204_668">
<rect width="22" height="25.1429" fill="white"/>
</clipPath>
</defs>
</svg>
