<svg width="22" height="30" viewBox="0 0 22 30" fill="none" xmlns="http://www.w3.org/2000/svg">
<g clip-path="url(#clip0_204_651)">
<path d="M12.8333 7.33333V0H2.75C1.2312 0 0 1.2312 0 2.75V26.5833C0 28.1016 1.2312 29.3333 2.75 29.3333H19.25C20.7688 29.3333 22 28.1021 22 26.5833V9.16667H14.7182C13.6526 9.16667 12.8333 8.3474 12.8333 7.33333ZM8.82865 20.2698C9.27621 20.7174 9.27621 21.4443 8.82865 21.8917C8.60521 22.1203 8.31302 22.2292 8.02083 22.2292C7.72865 22.2292 7.43474 22.1181 7.21073 21.8944L4.46073 19.1444C4.01317 18.6968 4.01317 17.9699 4.46073 17.5224L7.21073 14.7724C7.65829 14.3249 8.38349 14.3249 8.83094 14.7724C9.27839 15.22 9.2785 15.9469 8.83094 16.3944L6.89219 18.3333L8.82865 20.2698ZM17.537 17.5198C17.9845 17.9674 17.9845 18.6943 17.537 19.1417L14.787 21.8917C14.5635 22.1203 14.2714 22.2292 13.9792 22.2292C13.687 22.2292 13.3931 22.1181 13.1691 21.8944C12.7215 21.4468 12.7215 20.7199 13.1691 20.2724L15.1078 18.3333L13.1679 16.3946C12.7204 15.947 12.7204 15.2201 13.1679 14.7727C13.6155 14.3252 14.3407 14.3251 14.7881 14.7727L17.537 17.5198ZM14.6667 0V7.33333H22L14.6667 0Z" fill="white"/>
</g>
<defs>
<clipPath id="clip0_204_651">
<rect width="22" height="29.3333" fill="white"/>
</clipPath>
</defs>
</svg>
