<svg width="22" height="30" viewBox="0 0 22 30" fill="none" xmlns="http://www.w3.org/2000/svg">
<g clip-path="url(#clip0_204_647)">
<path d="M14.6667 0V7.33333H22L14.6667 0ZM16.5 14.6667H5.5V18.3333H16.5V14.6667ZM12.8333 7.33333V0H2.75C1.2312 0 0 1.2312 0 2.75V26.5833C0 28.1016 1.2312 29.3333 2.75 29.3333H19.25C20.7688 29.3333 22 28.1021 22 26.5833V9.16667H14.7182C13.6526 9.16667 12.8333 8.3474 12.8333 7.33333ZM3.66667 4.125C3.66667 3.87464 3.87464 3.66667 4.125 3.66667H8.70833C8.96042 3.66667 9.16667 3.87464 9.16667 4.125V5.04167C9.16667 5.2926 8.96042 5.5 8.70833 5.5H4.125C3.87464 5.5 3.66667 5.2926 3.66667 5.04167V4.125ZM3.66667 7.79167C3.66667 7.53958 3.87464 7.33333 4.125 7.33333H8.70833C8.96042 7.33333 9.16667 7.53958 9.16667 7.79167V8.70833C9.16667 8.96042 8.96042 9.16667 8.70833 9.16667H4.125C3.87464 9.16667 3.66667 8.96042 3.66667 8.70833V7.79167ZM18.3333 25.2083C18.3333 25.459 18.1257 25.6667 17.875 25.6667H13.2917C13.0396 25.6667 12.8333 25.4604 12.8333 25.2083V24.2917C12.8333 24.041 13.041 23.8333 13.2917 23.8333H17.875C18.1257 23.8333 18.3333 24.041 18.3333 24.2917V25.2083ZM18.3333 13.75V19.25C18.3333 19.7585 17.9251 20.1667 17.4167 20.1667H4.58333C4.07516 20.1667 3.66667 19.7599 3.66667 19.25V13.75C3.66667 13.2401 4.07516 12.8333 4.58333 12.8333H17.4167C17.9266 12.8333 18.3333 13.2401 18.3333 13.75Z" fill="white"/>
</g>
<defs>
<clipPath id="clip0_204_647">
<rect width="22" height="29.3333" fill="white"/>
</clipPath>
</defs>
</svg>
