<svg width="22" height="30" viewBox="0 0 22 30" fill="none" xmlns="http://www.w3.org/2000/svg">
<g clip-path="url(#clip0_204_653)">
<path d="M9.64219 28.6C6.65156 24.9219 0 16.0073 0 11C0 4.92479 4.92479 0 11 0C17.0729 0 22 4.92479 22 11C22 16.0073 15.2969 24.9219 12.3578 28.6C11.6531 29.4766 10.3469 29.4766 9.64219 28.6ZM11 14.6667C13.0224 14.6667 14.6667 13.0224 14.6667 11C14.6667 8.9776 13.0224 7.33333 11 7.33333C8.9776 7.33333 7.33333 8.9776 7.33333 11C7.33333 13.0224 8.9776 14.6667 11 14.6667Z" fill="white"/>
</g>
<defs>
<clipPath id="clip0_204_653">
<rect width="22" height="29.3333" fill="white"/>
</clipPath>
</defs>
</svg>
