<svg width="22" height="30" viewBox="0 0 22 30" fill="none" xmlns="http://www.w3.org/2000/svg">
<path fill-rule="evenodd" clip-rule="evenodd" d="M3.66667 0C1.64141 0 0 1.64141 0 3.66667V25.6667C0 27.6891 1.64141 29.3333 3.66667 29.3333H18.3333C20.3557 29.3333 22 27.6891 22 25.6667V9.16667H14.6667C13.6526 9.16667 12.8333 8.3474 12.8333 7.33333V0H3.66667ZM14.6667 7.33333H22L14.6667 0V7.33333ZM8 16.8924C8.75804 16.5572 9.28571 15.8641 9.28571 15.0312C9.28571 13.9095 8.32679 13 7.14286 13C5.95946 13 5 13.9095 5 15.0312C5 15.8641 5.52902 16.5572 6.28571 16.8924V17.875C6.28571 19.2207 7.43696 20.3125 8.85714 20.3125H10.1429V22.1076C9.38482 22.4199 8.85714 23.1359 8.85714 23.9688C8.85714 25.091 9.81607 26 11 26C12.1839 26 13.1429 25.091 13.1429 23.9688C13.1429 23.1359 12.6152 22.4199 11.8571 22.1076V20.3125H13.1429C14.5625 20.3125 15.7143 19.2207 15.7143 17.875V16.8924C16.4723 16.5572 17 15.8641 17 15.0312C17 13.9095 16.0411 13 14.8571 13C13.6732 13 12.7143 13.9095 12.7143 15.0312C12.7143 15.8641 13.242 16.5572 14 16.8924V17.875C14 18.3244 13.617 18.6875 13.1429 18.6875H8.85714C8.38304 18.6875 8 18.3244 8 17.875V16.8924ZM7.78571 15.0312C7.78571 15.3677 7.49777 15.6406 7.14286 15.6406C6.78795 15.6406 6.5 15.3677 6.5 15.0312C6.5 14.6948 6.78795 14.4219 7.14286 14.4219C7.49777 14.4219 7.78571 14.6948 7.78571 15.0312ZM15.5 15.0312C15.5 15.3677 15.2134 15.6406 14.8571 15.6406C14.5009 15.6406 14.2143 15.3677 14.2143 15.0312C14.2143 14.6948 14.5009 14.4219 14.8571 14.4219C15.2134 14.4219 15.5 14.6948 15.5 15.0312ZM10.3571 23.9688C10.3571 23.6311 10.6438 23.3594 11 23.3594C11.3562 23.3594 11.6429 23.6311 11.6429 23.9688C11.6429 24.3064 11.3562 24.5781 11 24.5781C10.6438 24.5781 10.3571 24.3064 10.3571 23.9688Z" fill="white"/>
</svg>
