<svg width="22" height="26" viewBox="0 0 22 26" fill="none" xmlns="http://www.w3.org/2000/svg">
<g clip-path="url(#clip0_204_649)">
<path d="M0.392562 7.53795C0.457679 7.53795 0.524513 7.55517 0.587763 7.5929L10.2143 13.3326V24.3228C10.2143 24.8011 9.83832 25.1433 9.42808 25.1433C9.29608 25.1433 9.1605 25.1079 9.03277 25.0303L1.55866 20.4893C0.59567 19.9031 0 18.8228 0 17.654V7.94554C0 7.66563 0.187442 7.53795 0.392562 7.53795ZM20.9295 5.75536C20.9295 5.89408 20.8631 6.03266 20.7305 6.11129L11 11.9134L1.27089 6.10893C1.13879 6.03036 1.07299 5.84866 1.07299 5.75536C1.07299 5.61786 1.13781 5.48021 1.2677 5.40075L9.37529 0.445844C9.90491 0.148451 10.4549 0 11 0C11.5451 0 12.0936 0.148451 12.5822 0.445402L20.6898 5.40031C20.8607 5.48036 20.9295 5.61786 20.9295 5.75536ZM21.6071 7.53795C21.8134 7.53795 22 7.66563 22 7.94554V17.654C22 18.8203 21.4048 19.9007 20.4394 20.487L12.9653 25.0294C12.8415 25.1085 12.704 25.1429 12.5714 25.1429C12.1638 25.1429 11.7857 24.7991 11.7857 24.3228V13.3326L21.4107 7.59196C21.4746 7.55268 21.5433 7.53795 21.6071 7.53795Z" fill="white"/>
</g>
<defs>
<clipPath id="clip0_204_649">
<rect width="22" height="25.1429" fill="white"/>
</clipPath>
</defs>
</svg>
